<mxfile host="app.diagrams.net" modified="2021-05-18T16:40:26.314Z" agent="5.0 (X11; Linux x86_64) AppleWebKit/537.36 (KHTML, like Gecko) Chrome/89.0.4389.105 Safari/537.36" etag="MrDP3-hy4tqoZFM1yZSA" version="14.6.1" type="github">
  <diagram id="RtwMyudxecNvqkHXJBne" name="Page-1">
    <mxGraphModel dx="1422" dy="805" grid="0" gridSize="10" guides="1" tooltips="1" connect="1" arrows="1" fold="1" page="1" pageScale="1" pageWidth="700" pageHeight="1000" math="0" shadow="0">
      <root>
        <mxCell id="0" />
        <mxCell id="1" parent="0" />
        <mxCell id="r0Qk7xvGoxgcfcVUUqBJ-1" value="" style="rounded=0;whiteSpace=wrap;html=1;" vertex="1" parent="1">
          <mxGeometry x="62" y="49" width="294" height="247" as="geometry" />
        </mxCell>
        <mxCell id="r0Qk7xvGoxgcfcVUUqBJ-2" value="" style="rounded=0;whiteSpace=wrap;html=1;" vertex="1" parent="1">
          <mxGeometry x="481" y="38" width="422" height="313" as="geometry" />
        </mxCell>
        <mxCell id="r0Qk7xvGoxgcfcVUUqBJ-3" value="" style="rounded=0;whiteSpace=wrap;html=1;" vertex="1" parent="1">
          <mxGeometry x="938" y="47" width="315" height="246" as="geometry" />
        </mxCell>
        <mxCell id="r0Qk7xvGoxgcfcVUUqBJ-4" value="Controller&lt;br&gt;" style="text;html=1;strokeColor=none;fillColor=none;align=center;verticalAlign=middle;whiteSpace=wrap;rounded=0;" vertex="1" parent="1">
          <mxGeometry x="179" y="13" width="40" height="20" as="geometry" />
        </mxCell>
        <mxCell id="r0Qk7xvGoxgcfcVUUqBJ-5" value="Network node" style="text;html=1;strokeColor=none;fillColor=none;align=center;verticalAlign=middle;whiteSpace=wrap;rounded=0;" vertex="1" parent="1">
          <mxGeometry x="678" y="6" width="40" height="20" as="geometry" />
        </mxCell>
        <mxCell id="r0Qk7xvGoxgcfcVUUqBJ-6" value="Compute node&lt;br&gt;" style="text;html=1;strokeColor=none;fillColor=none;align=center;verticalAlign=middle;whiteSpace=wrap;rounded=0;" vertex="1" parent="1">
          <mxGeometry x="1047" y="22" width="40" height="20" as="geometry" />
        </mxCell>
        <mxCell id="r0Qk7xvGoxgcfcVUUqBJ-7" value="brq72d9a824-24" style="rounded=0;whiteSpace=wrap;html=1;" vertex="1" parent="1">
          <mxGeometry x="520" y="222" width="139" height="60" as="geometry" />
        </mxCell>
        <mxCell id="r0Qk7xvGoxgcfcVUUqBJ-8" value="brq7e85df99-b8" style="rounded=0;whiteSpace=wrap;html=1;" vertex="1" parent="1">
          <mxGeometry x="725" y="222" width="138" height="60" as="geometry" />
        </mxCell>
        <mxCell id="r0Qk7xvGoxgcfcVUUqBJ-9" value="brq72d9a824-24" style="rounded=0;whiteSpace=wrap;html=1;" vertex="1" parent="1">
          <mxGeometry x="955" y="165" width="120" height="60" as="geometry" />
        </mxCell>
        <mxCell id="r0Qk7xvGoxgcfcVUUqBJ-10" value="brq7e85df99-b8" style="rounded=0;whiteSpace=wrap;html=1;" vertex="1" parent="1">
          <mxGeometry x="1118" y="162" width="120" height="60" as="geometry" />
        </mxCell>
        <mxCell id="r0Qk7xvGoxgcfcVUUqBJ-11" value="qdhcp-72d9" style="rounded=1;whiteSpace=wrap;html=1;" vertex="1" parent="1">
          <mxGeometry x="497" y="75" width="120" height="60" as="geometry" />
        </mxCell>
        <mxCell id="r0Qk7xvGoxgcfcVUUqBJ-12" value="qdhcp-7e85" style="rounded=1;whiteSpace=wrap;html=1;" vertex="1" parent="1">
          <mxGeometry x="638" y="77" width="120" height="60" as="geometry" />
        </mxCell>
        <mxCell id="r0Qk7xvGoxgcfcVUUqBJ-13" value="qrouter" style="rounded=1;whiteSpace=wrap;html=1;" vertex="1" parent="1">
          <mxGeometry x="779" y="77" width="120" height="60" as="geometry" />
        </mxCell>
        <mxCell id="r0Qk7xvGoxgcfcVUUqBJ-14" value="provider-vm" style="whiteSpace=wrap;html=1;aspect=fixed;rounded=0;" vertex="1" parent="1">
          <mxGeometry x="974" y="53" width="60" height="60" as="geometry" />
        </mxCell>
        <mxCell id="r0Qk7xvGoxgcfcVUUqBJ-15" value="self-service-vm" style="whiteSpace=wrap;html=1;aspect=fixed;rounded=0;" vertex="1" parent="1">
          <mxGeometry x="1136" y="55" width="60" height="60" as="geometry" />
        </mxCell>
        <mxCell id="r0Qk7xvGoxgcfcVUUqBJ-16" value="provider&lt;br&gt;ens3" style="rounded=0;whiteSpace=wrap;html=1;" vertex="1" parent="1">
          <mxGeometry x="544" y="311" width="88" height="40" as="geometry" />
        </mxCell>
        <mxCell id="r0Qk7xvGoxgcfcVUUqBJ-17" value="Management&lt;br&gt;ens4" style="rounded=0;whiteSpace=wrap;html=1;" vertex="1" parent="1">
          <mxGeometry x="753" y="311" width="88" height="40" as="geometry" />
        </mxCell>
        <mxCell id="r0Qk7xvGoxgcfcVUUqBJ-18" value="provider&lt;br&gt;ens3" style="rounded=0;whiteSpace=wrap;html=1;" vertex="1" parent="1">
          <mxGeometry x="976" y="253" width="88" height="40" as="geometry" />
        </mxCell>
        <mxCell id="r0Qk7xvGoxgcfcVUUqBJ-19" value="Management&lt;br&gt;ens4" style="rounded=0;whiteSpace=wrap;html=1;" vertex="1" parent="1">
          <mxGeometry x="1146" y="253" width="88" height="40" as="geometry" />
        </mxCell>
        <mxCell id="r0Qk7xvGoxgcfcVUUqBJ-20" value="iptable and routing&amp;nbsp;" style="text;html=1;strokeColor=none;fillColor=none;align=center;verticalAlign=middle;whiteSpace=wrap;rounded=0;" vertex="1" parent="1">
          <mxGeometry x="815" y="49" width="40" height="20" as="geometry" />
        </mxCell>
        <mxCell id="r0Qk7xvGoxgcfcVUUqBJ-22" value="dnsmasq" style="text;html=1;strokeColor=none;fillColor=none;align=center;verticalAlign=middle;whiteSpace=wrap;rounded=0;" vertex="1" parent="1">
          <mxGeometry x="678" y="57" width="40" height="20" as="geometry" />
        </mxCell>
        <mxCell id="r0Qk7xvGoxgcfcVUUqBJ-23" value="dnsmasq" style="text;html=1;strokeColor=none;fillColor=none;align=center;verticalAlign=middle;whiteSpace=wrap;rounded=0;" vertex="1" parent="1">
          <mxGeometry x="538" y="55" width="40" height="20" as="geometry" />
        </mxCell>
        <mxCell id="r0Qk7xvGoxgcfcVUUqBJ-24" value="qr" style="rounded=0;whiteSpace=wrap;html=1;" vertex="1" parent="1">
          <mxGeometry x="794" y="115" width="35" height="22" as="geometry" />
        </mxCell>
        <mxCell id="r0Qk7xvGoxgcfcVUUqBJ-25" value="qg" style="rounded=0;whiteSpace=wrap;html=1;" vertex="1" parent="1">
          <mxGeometry x="855" y="115" width="35" height="22" as="geometry" />
        </mxCell>
        <mxCell id="r0Qk7xvGoxgcfcVUUqBJ-27" value="tap" style="rounded=0;whiteSpace=wrap;html=1;" vertex="1" parent="1">
          <mxGeometry x="528" y="197" width="46" height="25" as="geometry" />
        </mxCell>
        <mxCell id="r0Qk7xvGoxgcfcVUUqBJ-28" value="tap-uplinkport" style="rounded=0;whiteSpace=wrap;html=1;" vertex="1" parent="1">
          <mxGeometry x="613" y="257" width="46" height="25" as="geometry" />
        </mxCell>
        <mxCell id="r0Qk7xvGoxgcfcVUUqBJ-29" value="vxlan-7" style="rounded=0;whiteSpace=wrap;html=1;" vertex="1" parent="1">
          <mxGeometry x="600" y="197" width="46" height="25" as="geometry" />
        </mxCell>
        <mxCell id="r0Qk7xvGoxgcfcVUUqBJ-31" value="tap" style="rounded=0;whiteSpace=wrap;html=1;" vertex="1" parent="1">
          <mxGeometry x="735" y="197" width="46" height="25" as="geometry" />
        </mxCell>
        <mxCell id="r0Qk7xvGoxgcfcVUUqBJ-32" value="tap" style="rounded=0;whiteSpace=wrap;html=1;" vertex="1" parent="1">
          <mxGeometry x="801" y="197" width="46" height="25" as="geometry" />
        </mxCell>
        <mxCell id="r0Qk7xvGoxgcfcVUUqBJ-34" value="" style="endArrow=classic;html=1;exitX=0.5;exitY=1;exitDx=0;exitDy=0;entryX=0.5;entryY=0;entryDx=0;entryDy=0;fillColor=#1ba1e2;strokeColor=#006EAF;" edge="1" parent="1" source="r0Qk7xvGoxgcfcVUUqBJ-25" target="r0Qk7xvGoxgcfcVUUqBJ-32">
          <mxGeometry width="50" height="50" relative="1" as="geometry">
            <mxPoint x="692" y="343" as="sourcePoint" />
            <mxPoint x="742" y="293" as="targetPoint" />
          </mxGeometry>
        </mxCell>
        <mxCell id="r0Qk7xvGoxgcfcVUUqBJ-35" value="ns-if" style="rounded=1;whiteSpace=wrap;html=1;" vertex="1" parent="1">
          <mxGeometry x="538" y="113" width="35" height="27" as="geometry" />
        </mxCell>
        <mxCell id="r0Qk7xvGoxgcfcVUUqBJ-36" value="ns-if" style="rounded=1;whiteSpace=wrap;html=1;" vertex="1" parent="1">
          <mxGeometry x="680.5" y="115" width="35" height="27" as="geometry" />
        </mxCell>
        <mxCell id="r0Qk7xvGoxgcfcVUUqBJ-38" value="" style="endArrow=classic;html=1;exitX=0.5;exitY=1;exitDx=0;exitDy=0;" edge="1" parent="1" source="r0Qk7xvGoxgcfcVUUqBJ-35" target="r0Qk7xvGoxgcfcVUUqBJ-27">
          <mxGeometry width="50" height="50" relative="1" as="geometry">
            <mxPoint x="692" y="343" as="sourcePoint" />
            <mxPoint x="742" y="293" as="targetPoint" />
          </mxGeometry>
        </mxCell>
        <mxCell id="r0Qk7xvGoxgcfcVUUqBJ-39" value="uplink port" style="rounded=0;whiteSpace=wrap;html=1;" vertex="1" parent="1">
          <mxGeometry x="725" y="257" width="51" height="33" as="geometry" />
        </mxCell>
        <mxCell id="r0Qk7xvGoxgcfcVUUqBJ-40" value="" style="endArrow=classic;html=1;exitX=0.5;exitY=1;exitDx=0;exitDy=0;entryX=0.5;entryY=0;entryDx=0;entryDy=0;" edge="1" parent="1" source="r0Qk7xvGoxgcfcVUUqBJ-36" target="r0Qk7xvGoxgcfcVUUqBJ-31">
          <mxGeometry width="50" height="50" relative="1" as="geometry">
            <mxPoint x="692" y="336" as="sourcePoint" />
            <mxPoint x="742" y="286" as="targetPoint" />
          </mxGeometry>
        </mxCell>
        <mxCell id="r0Qk7xvGoxgcfcVUUqBJ-41" value="" style="endArrow=classic;html=1;entryX=1;entryY=0.5;entryDx=0;entryDy=0;exitX=0.5;exitY=1;exitDx=0;exitDy=0;fillColor=#1ba1e2;strokeColor=#006EAF;" edge="1" parent="1" source="r0Qk7xvGoxgcfcVUUqBJ-39" target="r0Qk7xvGoxgcfcVUUqBJ-16">
          <mxGeometry width="50" height="50" relative="1" as="geometry">
            <mxPoint x="692" y="336" as="sourcePoint" />
            <mxPoint x="742" y="286" as="targetPoint" />
          </mxGeometry>
        </mxCell>
        <mxCell id="r0Qk7xvGoxgcfcVUUqBJ-42" value="internet" style="ellipse;shape=cloud;whiteSpace=wrap;html=1;rounded=0;" vertex="1" parent="1">
          <mxGeometry x="690.5" y="445" width="120" height="80" as="geometry" />
        </mxCell>
        <mxCell id="r0Qk7xvGoxgcfcVUUqBJ-43" value="" style="endArrow=classic;html=1;exitX=0.5;exitY=1;exitDx=0;exitDy=0;entryX=0.4;entryY=0.1;entryDx=0;entryDy=0;entryPerimeter=0;" edge="1" parent="1" source="r0Qk7xvGoxgcfcVUUqBJ-16" target="r0Qk7xvGoxgcfcVUUqBJ-42">
          <mxGeometry width="50" height="50" relative="1" as="geometry">
            <mxPoint x="692" y="336" as="sourcePoint" />
            <mxPoint x="742" y="286" as="targetPoint" />
          </mxGeometry>
        </mxCell>
        <mxCell id="r0Qk7xvGoxgcfcVUUqBJ-45" value="" style="endArrow=classic;html=1;exitX=0;exitY=0.5;exitDx=0;exitDy=0;entryX=1;entryY=0.25;entryDx=0;entryDy=0;fillColor=#1ba1e2;strokeColor=#006EAF;" edge="1" parent="1" source="r0Qk7xvGoxgcfcVUUqBJ-17" target="r0Qk7xvGoxgcfcVUUqBJ-29">
          <mxGeometry width="50" height="50" relative="1" as="geometry">
            <mxPoint x="692" y="336" as="sourcePoint" />
            <mxPoint x="742" y="286" as="targetPoint" />
          </mxGeometry>
        </mxCell>
        <mxCell id="r0Qk7xvGoxgcfcVUUqBJ-46" value="" style="endArrow=classic;html=1;exitX=1;exitY=0.5;exitDx=0;exitDy=0;entryX=0;entryY=0.75;entryDx=0;entryDy=0;fillColor=#1ba1e2;strokeColor=#006EAF;" edge="1" parent="1" source="r0Qk7xvGoxgcfcVUUqBJ-28" target="r0Qk7xvGoxgcfcVUUqBJ-24">
          <mxGeometry width="50" height="50" relative="1" as="geometry">
            <mxPoint x="692" y="336" as="sourcePoint" />
            <mxPoint x="742" y="286" as="targetPoint" />
            <Array as="points">
              <mxPoint x="721" y="193" />
            </Array>
          </mxGeometry>
        </mxCell>
        <mxCell id="r0Qk7xvGoxgcfcVUUqBJ-47" value="vxlan-7" style="rounded=0;whiteSpace=wrap;html=1;" vertex="1" parent="1">
          <mxGeometry x="1029" y="204" width="46" height="25" as="geometry" />
        </mxCell>
        <mxCell id="r0Qk7xvGoxgcfcVUUqBJ-48" value="" style="endArrow=classic;startArrow=classic;html=1;exitX=0.5;exitY=1;exitDx=0;exitDy=0;entryX=0.5;entryY=1;entryDx=0;entryDy=0;fillColor=#1ba1e2;strokeColor=#006EAF;" edge="1" parent="1" source="r0Qk7xvGoxgcfcVUUqBJ-17" target="r0Qk7xvGoxgcfcVUUqBJ-19">
          <mxGeometry width="50" height="50" relative="1" as="geometry">
            <mxPoint x="692" y="322" as="sourcePoint" />
            <mxPoint x="742" y="272" as="targetPoint" />
            <Array as="points">
              <mxPoint x="988" y="433" />
            </Array>
          </mxGeometry>
        </mxCell>
        <mxCell id="r0Qk7xvGoxgcfcVUUqBJ-49" value="uplink port" style="rounded=0;whiteSpace=wrap;html=1;" vertex="1" parent="1">
          <mxGeometry x="1118" y="200" width="51" height="33" as="geometry" />
        </mxCell>
        <mxCell id="r0Qk7xvGoxgcfcVUUqBJ-50" value="" style="endArrow=classic;html=1;exitX=0.5;exitY=1;exitDx=0;exitDy=0;entryX=0.5;entryY=0;entryDx=0;entryDy=0;fillColor=#e51400;strokeColor=#B20000;" edge="1" parent="1" source="r0Qk7xvGoxgcfcVUUqBJ-49" target="r0Qk7xvGoxgcfcVUUqBJ-18">
          <mxGeometry width="50" height="50" relative="1" as="geometry">
            <mxPoint x="692" y="322" as="sourcePoint" />
            <mxPoint x="742" y="272" as="targetPoint" />
          </mxGeometry>
        </mxCell>
        <mxCell id="r0Qk7xvGoxgcfcVUUqBJ-51" value="eth0" style="rounded=0;whiteSpace=wrap;html=1;" vertex="1" parent="1">
          <mxGeometry x="1143.5" y="97" width="45" height="31" as="geometry" />
        </mxCell>
        <mxCell id="r0Qk7xvGoxgcfcVUUqBJ-52" value="tap" style="rounded=0;whiteSpace=wrap;html=1;" vertex="1" parent="1">
          <mxGeometry x="967" y="154" width="46" height="25" as="geometry" />
        </mxCell>
        <mxCell id="r0Qk7xvGoxgcfcVUUqBJ-54" value="eth0" style="rounded=0;whiteSpace=wrap;html=1;" vertex="1" parent="1">
          <mxGeometry x="986" y="96" width="36" height="32" as="geometry" />
        </mxCell>
        <mxCell id="r0Qk7xvGoxgcfcVUUqBJ-55" value="tap" style="rounded=0;whiteSpace=wrap;html=1;" vertex="1" parent="1">
          <mxGeometry x="1131" y="152" width="46" height="25" as="geometry" />
        </mxCell>
        <mxCell id="r0Qk7xvGoxgcfcVUUqBJ-56" value="" style="endArrow=classic;html=1;exitX=0.5;exitY=1;exitDx=0;exitDy=0;entryX=0.5;entryY=0;entryDx=0;entryDy=0;fillColor=#e51400;strokeColor=#B20000;" edge="1" parent="1" source="r0Qk7xvGoxgcfcVUUqBJ-54" target="r0Qk7xvGoxgcfcVUUqBJ-55">
          <mxGeometry width="50" height="50" relative="1" as="geometry">
            <mxPoint x="692" y="282" as="sourcePoint" />
            <mxPoint x="742" y="232" as="targetPoint" />
          </mxGeometry>
        </mxCell>
        <mxCell id="r0Qk7xvGoxgcfcVUUqBJ-57" value="" style="endArrow=classic;html=1;exitX=0.5;exitY=1;exitDx=0;exitDy=0;entryX=0.625;entryY=0.2;entryDx=0;entryDy=0;entryPerimeter=0;fillColor=#e51400;strokeColor=#B20000;" edge="1" parent="1" source="r0Qk7xvGoxgcfcVUUqBJ-18" target="r0Qk7xvGoxgcfcVUUqBJ-42">
          <mxGeometry width="50" height="50" relative="1" as="geometry">
            <mxPoint x="692" y="282" as="sourcePoint" />
            <mxPoint x="742" y="232" as="targetPoint" />
          </mxGeometry>
        </mxCell>
        <mxCell id="r0Qk7xvGoxgcfcVUUqBJ-58" value="" style="endArrow=classic;html=1;exitX=0.5;exitY=1;exitDx=0;exitDy=0;entryX=1;entryY=0.5;entryDx=0;entryDy=0;fillColor=#1ba1e2;strokeColor=#006EAF;" edge="1" parent="1" source="r0Qk7xvGoxgcfcVUUqBJ-51" target="r0Qk7xvGoxgcfcVUUqBJ-52">
          <mxGeometry width="50" height="50" relative="1" as="geometry">
            <mxPoint x="692" y="282" as="sourcePoint" />
            <mxPoint x="742" y="232" as="targetPoint" />
          </mxGeometry>
        </mxCell>
        <mxCell id="r0Qk7xvGoxgcfcVUUqBJ-59" value="" style="endArrow=classic;html=1;exitX=0.5;exitY=1;exitDx=0;exitDy=0;entryX=0.5;entryY=0;entryDx=0;entryDy=0;fillColor=#1ba1e2;strokeColor=#006EAF;" edge="1" parent="1" source="r0Qk7xvGoxgcfcVUUqBJ-47" target="r0Qk7xvGoxgcfcVUUqBJ-19">
          <mxGeometry width="50" height="50" relative="1" as="geometry">
            <mxPoint x="692" y="282" as="sourcePoint" />
            <mxPoint x="742" y="232" as="targetPoint" />
            <Array as="points">
              <mxPoint x="1117" y="247" />
            </Array>
          </mxGeometry>
        </mxCell>
        <mxCell id="r0Qk7xvGoxgcfcVUUqBJ-60" value="VXLAN tunnel" style="text;html=1;strokeColor=none;fillColor=none;align=center;verticalAlign=middle;whiteSpace=wrap;rounded=0;" vertex="1" parent="1">
          <mxGeometry x="967" y="399" width="40" height="20" as="geometry" />
        </mxCell>
      </root>
    </mxGraphModel>
  </diagram>
</mxfile>
